<svg width="445" height="404" viewBox="0 0 445 404" fill="none" xmlns="http://www.w3.org/2000/svg">
<path d="M73.5951 0.251949C57.5089 1.93683 40.3502 8.57138 28.8753 17.8383C19.0091 25.7362 7.31976 42.6909 4.85321 52.695C4.42424 54.4851 3.78079 56.2754 3.35182 56.9072C0.563537 60.5929 0.134571 80.1826 0.0273288 203.811C-0.0799129 274.787 0.134571 334.708 0.563537 337.025C6.67631 369.037 28.3391 392.1 60.8334 401.262L70.3779 404L224.27 403.684C366.901 403.368 378.591 403.158 384.382 401.473C400.361 396.839 412.05 390.205 422.345 379.99C430.817 371.566 436.394 362.614 441.434 349.661L444.651 341.237L444.973 271.208C445.08 232.666 444.866 169.691 444.33 131.149L443.472 61.1195L439.611 51.5366C434.356 38.4788 427.6 28.6847 418.377 20.3656C408.833 11.8359 399.395 6.88621 382.451 1.51562C379.02 0.357262 347.276 0.146631 227.487 0.0413266C144.589 -0.0639783 75.4183 0.041339 73.5951 0.251949Z" fill="#65C683"/>
<path d="M47.8 81.2471C47.4 81.7805 47 92.9805 47 106.447V130.714L56.0667 137.38C61 140.98 70.4667 147.647 77 152.18C83.6667 156.714 95.2667 164.847 103 170.314C110.733 175.647 124.333 185.114 133.267 191.247C142.2 197.38 149.533 202.98 149.667 203.78C149.667 204.58 144.6 208.847 138.467 213.114C122.6 224.18 97.4 241.514 89 246.98C75.4 255.78 54.6 270.18 50.8667 273.38L47 276.58V299.78C47 314.314 47.5333 322.98 48.3333 322.98C49.8 322.98 127.933 270.847 176.067 237.78C211.667 213.38 216.6 208.047 212.2 198.714C210.733 195.514 200.467 186.58 189.933 179.38C186.467 176.98 175.4 169.114 165.4 162.047C155.267 154.847 136.333 141.514 123.4 132.447C110.333 123.247 93.4 111.247 85.8 105.78C56.7333 84.4471 49.4 79.7805 47.8 81.2471Z" fill="black"/>
<path d="M220.733 250.98C218.333 251.914 217.8 253.647 217 260.98C215.666 273.247 216.866 285.78 219.666 287.78C223.266 290.447 264.333 291.38 332.866 290.58C377 290.047 397.133 289.38 398.2 288.314C399.133 287.38 399.666 280.447 399.666 269.247V251.647L391.666 250.847C379.4 249.514 224.066 249.647 220.733 250.98Z" fill="black"/>
</svg>
