<svg width="787" height="799" viewBox="0 0 787 799" fill="none" xmlns="http://www.w3.org/2000/svg">
<path d="M355.44 0.679699C275.973 4.01303 229.173 13.213 181.44 34.813C127.707 59.0797 81.0401 100.28 51.5734 149.48C23.9734 195.48 9.04008 247.88 1.84008 324.413C-0.959919 353.746 -0.426586 455.613 2.50675 484.146C8.24008 538.413 18.1067 578.946 34.3734 616.413C73.9734 707.08 154.64 768.413 260.773 788.28C322.107 799.88 423.84 801.613 496.107 792.28C553.573 784.946 603.973 767.213 645.707 739.88C672.373 722.28 690.24 706.413 709.44 683.08C747.84 636.413 771.973 574.546 781.307 499.08C788.773 439.48 788.773 360.546 781.307 298.413C770.64 208.413 742.773 143.746 693.04 93.3464C648.107 47.8797 593.307 20.6797 521.44 8.54637C483.04 2.01303 407.707 -1.58697 355.44 0.679699ZM416.773 152.546C437.307 163.746 441.573 190.546 425.573 207.48C419.707 213.88 412.107 217.346 402.773 218.013C387.84 219.213 375.973 213.213 368.107 200.413C364.64 194.68 364.107 192.813 364.107 183.88C364.107 171.746 367.707 163.346 375.973 156.28C387.04 146.813 403.44 145.213 416.773 152.546ZM524.107 150.946C532.107 154.68 541.04 164.146 543.173 171.48C550.507 195.746 534.773 218.013 509.973 218.28C495.173 218.546 483.44 211.48 477.173 198.68C467.707 179.48 476.907 156.946 497.173 149.48C504.64 146.813 516.64 147.346 524.107 150.946ZM633.04 149.88C646.907 154.546 656.773 168.413 656.773 182.946C656.64 202.013 643.04 216.546 624.107 218.013C613.973 218.946 606.373 216.813 599.173 211.346C581.707 198.013 579.973 173.746 595.307 158.413C605.307 148.413 619.573 145.213 633.04 149.88ZM188.507 284.68C190.907 286.013 217.44 311.613 247.44 341.613C290.507 384.68 302.373 397.213 303.44 400.946C305.44 408.28 305.04 415.346 302.24 420.813C300.773 423.613 275.973 449.346 245.173 479.88C195.84 528.68 189.973 534.146 184.373 535.746C162.907 541.613 145.04 521.746 153.44 501.346C154.907 498.013 169.973 481.88 199.173 452.68L242.773 409.08L199.173 365.346C169.973 336.28 154.907 320.146 153.44 316.813C148.24 304.28 153.307 290.813 165.44 284.546C170.907 281.746 183.04 281.746 188.507 284.68ZM527.04 560.013C536.773 565.346 541.973 577.346 539.44 588.546C537.707 596.013 534.373 600.68 527.707 604.68L522.773 607.746H430.907C339.173 607.746 339.173 607.746 333.973 604.813C319.973 596.946 316.907 577.346 327.84 565.613C335.84 556.946 333.307 557.08 432.773 557.48C515.573 557.746 523.173 557.88 527.04 560.013Z" fill="#B7FF5A"/>
</svg>
